<?xml version="1.0" encoding="utf-8"?>
<!-- Generator: Adobe Illustrator 15.0.0, SVG Export Plug-In . SVG Version: 6.00 Build 0)  -->
<!DOCTYPE svg PUBLIC "-//W3C//DTD SVG 1.1//EN" "http://www.w3.org/Graphics/SVG/1.1/DTD/svg11.dtd">
<svg version="1.1" id="Layer_1" xmlns="http://www.w3.org/2000/svg" xmlns:xlink="http://www.w3.org/1999/xlink" x="0px" y="0px"
	 width="392.39px" height="63.531px" viewBox="0 0 392.39 63.531" style="enable-background:new 0 0 392.39 63.531;"
	 xml:space="preserve">
<style type="text/css">
<![CDATA[
	.st0{fill:#FFFFFF;}
]]>
</style>
<path class="st0" d="M165.5,45.111c-6.218,0-10.092-5.574-10.092-13.258c0-7.626,3.229-13.316,10.033-13.316
	c4.457,0,7.392,2.873,7.919,6.628h10.385c-0.528-4.693-2.642-8.799-6.277-11.556c-2.993-2.289-7.099-3.696-11.968-3.696
	c-12.496,0-20.651,9.444-20.651,21.94c0,12.553,8.39,21.764,20.708,21.764c5.925,0,10.209-1.643,13.434-4.75
	c2.876-2.759,4.754-6.572,5.048-10.736h-10.384C173.185,42.18,170.135,45.111,165.5,45.111"/>
<path class="st0" d="M202.466,21.823c-9.624,0-16.076,6.863-16.076,15.897c0,9.033,6.453,15.897,16.076,15.897
	c9.679,0,16.015-6.864,16.015-15.897C218.481,28.686,212.145,21.823,202.466,21.823 M202.407,46.812
	c-4.166,0-6.335-3.637-6.335-9.092c0-5.457,2.169-9.152,6.335-9.152c4.165,0,6.394,3.695,6.394,9.152
	C208.8,43.176,206.572,46.812,202.407,46.812"/>
<path class="st0" d="M240.367,21.764c-4.164,0-7.039,1.759-9.269,4.985h-0.175v-4.106h-9.211V52.68h9.562V36.078
	c0-3.696,2.111-6.336,5.279-6.336c3.109,0,4.691,2.171,4.691,5.339V52.68h9.564V33.145C250.81,26.457,246.936,21.764,240.367,21.764
	"/>
<path class="st0" d="M266.246,13.14h-9.328v9.503h-3.988v5.984h3.988V44.76c0,6.453,3.988,8.271,9.562,8.271
	c2.58,0,4.399-0.234,5.22-0.469V45.58c-0.353,0-1.291,0.059-2.111,0.059c-2.052,0-3.343-0.586-3.343-2.932v-14.08h5.454v-5.984
	h-5.454V13.14z"/>
<path class="st0" d="M284.492,27.336h-0.175v-4.693h-9.153V52.68h9.563V39.186c0-6.512,3.753-9.385,9.62-8.564h0.236v-8.213
	c-0.414-0.175-0.998-0.234-1.88-0.234C289.069,22.174,286.604,23.758,284.492,27.336"/>
<path class="st0" d="M311.774,21.823c-9.621,0-16.074,6.863-16.074,15.897c0,9.033,6.453,15.897,16.074,15.897
	c9.682,0,16.017-6.864,16.017-15.897C327.791,28.686,321.456,21.823,311.774,21.823 M311.716,46.812
	c-4.166,0-6.334-3.637-6.334-9.092c0-5.457,2.168-9.152,6.334-9.152s6.394,3.695,6.394,9.152
	C318.11,43.176,315.882,46.812,311.716,46.812"/>
<rect x="331.08" y="10.734" class="st0" width="9.682" height="41.945"/>
<path class="st0" d="M372.97,10.734H355.08V52.68h17.244c5.283,0,9.506-1.349,12.792-3.813c4.69-3.578,7.274-9.503,7.274-16.894
	C392.39,19.124,384.587,10.734,372.97,10.734 M371.564,43.938h-6.104V19.417h6.221c6.51,0,10.207,4.928,10.207,12.556
	C381.888,39.656,378.367,43.938,371.564,43.938"/>
<path class="st0" d="M24.27,34.209H0c0,16.194,13.128,29.322,29.322,29.322h24.27C53.592,47.337,40.464,34.209,24.27,34.209"/>
<path class="st0" d="M0,29.322h24.27c16.194,0,29.321-13.128,29.321-29.322H29.322C13.128,0,0,13.128,0,29.322"/>
<path class="st0" d="M58.472,63.531h24.27c16.194,0,29.321-13.129,29.321-29.322H87.794C71.601,34.209,58.472,47.337,58.472,63.531"
	/>
<path class="st0" d="M82.742,0h-24.27c0,16.194,13.128,29.322,29.322,29.322h24.27C112.064,13.128,98.936,0,82.742,0"/>
</svg>
